<svg width="100" height="101" viewBox="0 0 100 101" fill="none" xmlns="http://www.w3.org/2000/svg">
<rect y="0.5" width="100" height="100" rx="50" fill="#F7F7F7"/>
<g clip-path="url(#clip0_453_4011)">
<path d="M56.6294 47.5017C56.6294 40.6501 51.0989 35.0957 44.2766 35.0957C37.4544 35.0957 31.9238 40.6501 31.9238 47.5017C31.9238 53.3128 35.9021 58.1906 41.2725 59.5382L44.2766 63.7867L47.2808 59.5382C52.6511 58.1905 56.6294 53.3127 56.6294 47.5017Z" fill="#6179BC"/>
<path d="M44.2766 55.0968C48.4363 55.0968 51.8206 51.6896 51.8206 47.5016C51.8206 43.3135 48.4363 39.9062 44.2766 39.9062C40.1167 39.9062 36.7324 43.3135 36.7324 47.5016C36.7324 51.6896 40.1167 55.0968 44.2766 55.0968ZM44.2766 41.9097C47.3318 41.9097 49.8173 44.4182 49.8173 47.5017C49.8173 50.5851 47.3318 53.0936 44.2766 53.0936C41.2213 53.0936 38.7357 50.5851 38.7357 47.5017C38.7357 44.4182 41.2213 41.9097 44.2766 41.9097Z" fill="white"/>
<path d="M75.1365 53.467L72.3187 51.8605L64.1949 39.5604V30.2973C64.1949 29.7441 63.7463 29.2957 63.1932 29.2957H25.3591C24.806 29.2957 24.3574 29.7441 24.3574 30.2973V68.2597C24.3574 68.813 24.806 69.2614 25.3591 69.2614H30.949C31.613 71.1665 33.4279 72.5374 35.5571 72.5374C37.6864 72.5374 39.5013 71.1665 40.1653 69.2614H59.3957C60.0596 71.1665 61.8746 72.5374 64.0038 72.5374C66.1331 72.5374 67.948 71.1665 68.612 69.2614H74.6404C75.1935 69.2614 75.642 68.813 75.642 68.2597V54.3372C75.642 54.1604 75.5953 53.9868 75.5065 53.834C75.4177 53.6812 75.29 53.5546 75.1365 53.467ZM73.6387 62.7849H64.1949V53.6139H71.3492L73.6387 54.9191V62.7849ZM59.1424 67.2581H40.4185C40.3452 66.3654 40.026 65.5105 39.4964 64.7882H60.0646C59.5349 65.5105 59.2157 66.3654 59.1424 67.2581ZM69.7527 51.6106H64.1949V43.1955L69.7527 51.6106ZM26.3607 31.299H62.1915V62.7849H26.3607V31.299ZM26.3607 64.7882H31.6178C31.0882 65.5105 30.769 66.3654 30.6957 67.2581H26.3607V64.7882ZM35.5571 70.5341C33.972 70.5341 32.6825 69.2453 32.6825 67.6612C32.6825 66.077 33.972 64.7882 35.5571 64.7882C37.1422 64.7882 38.4318 66.077 38.4318 67.6612C38.4318 69.2453 37.1422 70.5341 35.5571 70.5341ZM64.0038 70.5341C62.4187 70.5341 61.1292 69.2453 61.1292 67.6612C61.1292 66.077 62.4187 64.7882 64.0038 64.7882C65.589 64.7882 66.8786 66.077 66.8786 67.6612C66.8786 69.2453 65.589 70.5341 64.0038 70.5341ZM73.6387 67.2581H68.8653C68.7919 66.3654 68.4728 65.5105 67.9431 64.7882H73.6387V67.2581Z" fill="#445B9C"/>
</g>
<defs>
<clipPath id="clip0_453_4011">
<rect width="51.2846" height="51.2846" fill="white" transform="translate(24.3574 25.2742)"/>
</clipPath>
</defs>
</svg>
