<svg width="24" height="24" viewBox="0 0 24 24" fill="none" xmlns="http://www.w3.org/2000/svg">
<path d="M19.125 3.7998C20.9613 3.7998 22.4502 5.28865 22.4502 7.125V16.875C22.4502 18.7113 20.9613 20.2002 19.125 20.2002H4.875C3.03865 20.2002 1.5498 18.7113 1.5498 16.875V7.125C1.5498 5.28865 3.03865 3.7998 4.875 3.7998H19.125ZM2.9502 9.9375V16.875C2.9502 17.9381 3.81185 18.7998 4.875 18.7998H19.125C20.1881 18.7998 21.0498 17.9381 21.0498 16.875V9.9375H2.9502ZM8.25 13.125C8.76777 13.125 9.1875 13.5447 9.1875 14.0625V15C9.1875 15.5178 8.76777 15.9375 8.25 15.9375H6C5.48223 15.9375 5.0625 15.5178 5.0625 15V14.0625C5.0625 13.5447 5.48223 13.125 6 13.125H8.25ZM4.875 5.2002C3.81185 5.2002 2.9502 6.06185 2.9502 7.125V8.0625H21.0498V7.125C21.0498 6.06185 20.1881 5.2002 19.125 5.2002H4.875Z" fill="#222222"/>
</svg>
