<svg width="24" height="24" viewBox="0 0 24 24" fill="none" xmlns="http://www.w3.org/2000/svg">
<path d="M19.5 20.4375V18.5625C19.5 17.5679 19.1049 16.6141 18.4017 15.9108C17.6984 15.2076 16.7446 14.8125 15.75 14.8125H8.25C7.25544 14.8125 6.30161 15.2076 5.59835 15.9108C4.89509 16.6141 4.5 17.5679 4.5 18.5625V20.4375" stroke="white" stroke-width="1.5" stroke-linecap="round" stroke-linejoin="round"/>
<path d="M8.25 7.3125C8.25 8.30706 8.64509 9.26089 9.34835 9.96415C10.0516 10.6674 11.0054 11.0625 12 11.0625C12.9946 11.0625 13.9484 10.6674 14.6517 9.96415C15.3549 9.26089 15.75 8.30706 15.75 7.3125C15.75 6.31794 15.3549 5.36411 14.6517 4.66085C13.9484 3.95759 12.9946 3.5625 12 3.5625C11.0054 3.5625 10.0516 3.95759 9.34835 4.66085C8.64509 5.36411 8.25 6.31794 8.25 7.3125Z" stroke="white" stroke-width="1.5" stroke-linecap="round" stroke-linejoin="round"/>
</svg>
