<svg width="122" height="48" viewBox="0 0 122 48" fill="none" xmlns="http://www.w3.org/2000/svg">
<g clip-path="url(#clip0_201_2873)">
<path d="M7.71824 43.2734C7.73896 44.3284 7.625 45.1972 6.91016 46.0246C6.19531 46.852 5.10751 47.3277 4.0197 47.3277C1.82337 47.3277 0 45.5074 0 43.3148C0 41.1222 1.82337 39.2605 4.0715 39.2605C5.43903 39.2605 6.54755 39.8707 7.37636 40.9463L6.7444 41.5359C6.09171 40.6154 5.21111 40.0672 4.06114 40.0672C2.27921 40.0672 0.870245 41.5669 0.870245 43.3251C0.870245 44.1525 1.20177 44.9386 1.78193 45.5281C2.35173 46.097 3.18054 46.521 3.99898 46.521C5.35615 46.521 6.78584 45.5281 6.78584 44.0801H4.46518V43.2734H7.71824Z" fill="#E0E2E5"/>
<path d="M10.2875 46.3866H12.4424V47.1933H9.4173V39.395H10.2875V46.3866Z" fill="#E0E2E5"/>
<path d="M14.6595 47.1933H13.7892V39.395H14.6595V47.1933Z" fill="#E0E2E5"/>
<path d="M18.7828 47.1933H17.9125V40.2017H16.027V39.395H20.689V40.2017H18.7828V47.1933Z" fill="#E0E2E5"/>
<path d="M24.1182 47.1933H23.248V40.2017H21.3624V39.395H26.0245V40.2017H24.1182V47.1933Z" fill="#E0E2E5"/>
<path d="M27.3817 39.395H31.4324V40.2017H28.2519V42.5185H31.3392V43.3252H28.2519V46.3866H31.4324V47.1933H27.3817V39.395Z" fill="#E0E2E5"/>
<path d="M34.2504 47.1933H33.3801V39.395H34.5094C35.9909 39.395 37.3687 39.788 37.3687 41.5463C37.3687 42.746 36.6125 43.5941 35.4107 43.6975L37.8971 47.1933H36.83L34.4679 43.7699H34.2504V47.1933ZM34.2504 43.0046H34.5197C35.5039 43.0046 36.4985 42.8184 36.4985 41.6083C36.4985 40.3259 35.5557 40.2017 34.5094 40.2017H34.2504V43.0046Z" fill="#E0E2E5"/>
<path d="M44.7761 45.5696C44.7761 46.1901 44.7761 46.8417 44.3825 47.3588C44.0613 47.7829 43.564 48.0001 43.0356 48.0001C42.5073 48.0001 42.0411 47.7518 41.6474 47.4209L42.1343 46.7486C42.414 47.0072 42.6523 47.1933 43.0564 47.1933C43.9059 47.1933 43.9059 46.1798 43.9059 45.5696V39.395H44.7761V45.5696Z" fill="#E0E2E5"/>
<path d="M46.8378 39.395H50.8886V40.2017H47.7081V42.5185H50.7954V43.3252H47.7081V46.3866H50.8886V47.1933H46.8378V39.395Z" fill="#E0E2E5"/>
<path d="M55.1776 45.2384L57.7055 38.9915L60.2334 45.2384L62.2846 39.3948H63.2274L60.2334 47.5965L57.7055 41.3185L55.1776 47.5965L52.1836 39.3948H53.1264L55.1776 45.2384Z" fill="#E0E2E5"/>
<path d="M64.6053 39.395H68.6561V40.2017H65.4755V42.5185H68.5628V43.3252H65.4755V46.3866H68.6561V47.1933H64.6053V39.395Z" fill="#E0E2E5"/>
<path d="M71.474 46.3866H73.6289V47.1933H70.6038V39.395H71.474V46.3866Z" fill="#E0E2E5"/>
<path d="M78.4981 40.9153C78.1873 40.3775 77.8144 40.0672 77.1513 40.0672C76.4883 40.0672 75.8563 40.5637 75.8563 41.2773C75.8563 41.9496 76.5504 42.2599 77.0788 42.4977L77.5968 42.7253C78.6121 43.17 79.472 43.6768 79.472 44.9179C79.472 46.2831 78.3738 47.3277 77.0166 47.3277C75.7631 47.3277 74.8307 46.521 74.582 45.3109L75.4316 45.073C75.5455 45.8694 76.1568 46.521 76.9959 46.521C77.8351 46.521 78.6017 45.8798 78.6017 45.0006C78.6017 44.1215 77.8869 43.7802 77.1617 43.4492L76.6851 43.2424C75.7734 42.8287 74.9861 42.3633 74.9861 41.2463C74.9861 40.0362 76.0117 39.2605 77.172 39.2605C78.0423 39.2605 78.7779 39.7052 79.1923 40.4706L78.4981 40.9153Z" fill="#E0E2E5"/>
<path d="M85.7398 46.3866H87.8947V47.1933H84.8696V39.395H85.7398V46.3866Z" fill="#E0E2E5"/>
<path d="M90.1118 47.1933H89.2415V39.395H90.1118V47.1933Z" fill="#E0E2E5"/>
<path d="M93.1783 38.9502L96.017 45.4971L98.866 38.9502L100.451 47.1932H99.5601L98.5552 41.9185H98.5345L96.017 47.5139L93.5099 41.9185H93.4891L92.4842 47.1932H91.5933L93.1783 38.9502Z" fill="#E0E2E5"/>
<path d="M102.803 47.1933H101.933V39.395H102.803V47.1933Z" fill="#E0E2E5"/>
<path d="M106.926 47.1933H106.056V40.2017H104.17V39.395H108.832V40.2017H106.926V47.1933Z" fill="#E0E2E5"/>
<path d="M110.19 39.395H114.24V40.2017H111.06V42.5185H114.147V43.3252H111.06V46.3866H114.24V47.1933H110.19V39.395Z" fill="#E0E2E5"/>
<path d="M116.188 39.395H117.659C118.83 39.395 119.783 39.5502 120.705 40.3362C121.596 41.1015 122 42.1461 122 43.3045C122 44.4629 121.586 45.4454 120.726 46.2108C119.793 47.0382 118.861 47.1933 117.638 47.1933H116.188V39.395ZM117.69 46.3866C118.643 46.3866 119.441 46.2522 120.156 45.5799C120.798 44.98 121.13 44.163 121.13 43.2942C121.13 42.4254 120.788 41.5463 120.114 40.9568C119.4 40.3259 118.612 40.2017 117.69 40.2017H117.058V46.3866H117.69Z" fill="#E0E2E5"/>
<path d="M45.1284 29.5695C43.5485 28.4266 42.6265 26.1409 41.9013 24.3361C38.6689 16.2275 35.4262 8.11377 32.1783 0H32.0126C31.3651 1.62379 30.7176 3.2424 30.0753 4.85585C29.9302 5.21267 29.7955 5.5488 29.666 5.89011C29.2568 6.98125 28.9356 7.98966 28.6974 8.93083C28.6922 8.94118 28.6922 8.94635 28.6922 8.95152C28.6715 9.04977 28.6456 9.14803 28.63 9.24111C28.5316 9.62896 28.4539 9.99612 28.4021 10.3529C28.1431 11.9509 28.1949 13.2902 28.5782 14.3504C29.0185 15.6122 29.8888 16.4809 31.3081 17.086C31.8261 17.329 32.2975 17.4686 32.7585 17.5979L32.8984 17.629C33.9965 17.9134 33.9965 18.0116 33.9965 18.0995C33.9914 18.4564 33.5303 18.4874 32.8673 18.5339C32.7585 18.5494 32.6445 18.5546 32.5254 18.565C30.4948 18.627 25.8639 19.2114 22.8388 23.7828C21.4971 25.81 21.176 30.2262 15.1412 30.3038V30.4796H27.1382V30.3038C25.5583 30.3038 24.0923 29.5281 23.2532 28.2612C23.0563 27.956 22.9009 27.6199 22.8025 27.2683C22.7093 26.9166 22.673 26.5546 22.6885 26.1926C22.7041 25.81 22.7714 25.4376 22.8854 25.0808C22.9993 24.6826 23.1651 24.3103 23.3568 23.9535C23.5691 23.5708 23.823 23.2088 24.0975 22.8623C24.3876 22.4951 24.7139 22.1538 25.061 21.8436C25.4288 21.5074 25.8225 21.1972 26.2265 20.9231C26.6616 20.6335 27.1123 20.3749 27.5785 20.1474C28.0654 19.9095 28.5679 19.7078 29.0807 19.5475C29.6142 19.382 30.1581 19.2527 30.7072 19.1597C31.2874 19.0666 31.8727 19.0252 32.4632 19.0304C32.8207 19.0304 33.1833 19.0097 33.5303 18.9632C33.7531 18.9321 33.9862 18.8959 34.1882 18.7822C34.442 18.6374 34.5249 18.384 34.5301 18.1202C34.5353 17.6496 34.1209 17.4945 33.2506 17.2359L33.0538 17.1842C32.6083 17.086 32.0747 16.8946 31.5412 16.7033C30.3602 16.1862 29.6039 15.4001 29.1843 14.2883C28.4902 12.4318 28.832 9.64447 30.2151 5.99354C30.298 5.78151 30.3757 5.56432 30.4586 5.36264C33.4578 12.8352 36.4467 20.318 39.4356 27.7802C39.6479 28.3439 39.5495 29.0006 39.2128 29.5178C38.9072 29.9884 38.3426 30.309 37.7313 30.309H35.7267V30.4745H47.3662V30.309C46.5063 30.309 45.7707 30.0246 45.1388 29.5798V29.5695H45.1284Z" fill="white"/>
<path d="M99.7985 1.76858C97.6954 0.641241 95.1986 0 92.4066 0H76.5194V0.180995H77.7782C78.8919 0.180995 79.8916 0.274079 80.5909 0.889463C81.2022 1.41694 81.5751 2.35294 81.5751 3.96639V25.7686C81.5751 28.9438 80.0781 30.1487 78.1822 30.2935H78.1667C78.0423 30.3038 77.9077 30.3038 77.7782 30.3038H76.5194V30.4796H92.4066C101.596 30.4796 107.434 23.6432 107.434 15.2398C107.434 9.39625 104.611 4.31286 99.7985 1.76858ZM91.9611 30.309H90.2517V30.2986H88.9411C88.8168 30.2986 88.7028 30.2986 88.5992 30.2883H88.5526C86.6982 30.1435 85.2788 29.0265 85.196 26.0685V3.96639C85.196 0.522301 86.8484 0.180995 88.9411 0.180995H90.2517L91.9611 0.175824C95.4369 0.175824 98.0269 1.7117 99.8244 4.05947C102.067 6.97608 103.083 11.1545 103.083 15.2398C103.083 22.6399 99.7622 30.309 91.9611 30.309Z" fill="white"/>
<path d="M61.1969 0.0361328V0.211957C62.7612 0.211957 64.1961 0.987652 65.0715 2.24945C65.9418 3.55262 66.1179 5.16089 65.5429 6.59334L58.0163 25.4582L48.9202 2.72004C48.6975 2.15637 48.7907 1.50995 49.086 1.02902C49.4382 0.511892 50.0028 0.206786 50.6089 0.206786H52.5721V0.0361328H40.9948V0.211957C44.0458 0.211957 45.434 3.64053 46.4338 6.20549L56.0997 30.4537H56.2758L65.719 6.86225C66.7654 4.29728 68.7234 0.211957 73.1627 0.211957V0.0361328H61.1917H61.1969Z" fill="white"/>
<path d="M28.8683 17.1479C28.2312 16.91 27.7339 16.4032 27.4283 15.8034C27.1071 15.1673 26.9155 14.3606 26.9517 13.6418C26.9569 13.5021 26.8533 13.3832 26.7134 13.3729H26.6461C26.5477 13.3573 26.4544 13.4091 26.4026 13.4918C25.7344 14.5829 24.5016 15.4362 23.1703 15.3742C23.0097 15.369 22.6575 15.2914 22.5487 15.4466C22.4088 15.6482 22.6937 15.8241 22.8129 15.9275C23.1548 16.2222 23.45 16.5687 23.6935 16.9514C24.17 17.7012 24.4601 18.5804 24.543 19.4698C24.5534 19.5836 24.6414 19.6767 24.7502 19.7025L24.8849 19.7284C24.8849 19.7284 24.916 19.7284 24.9315 19.7284C25.0092 19.7284 25.0817 19.6922 25.1335 19.6353C25.6308 19.0251 26.268 18.5338 26.9724 18.1873C27.335 18.0115 27.7132 17.8719 28.1017 17.7685C28.3451 17.7064 28.9823 17.7323 29.0289 17.4323C29.0496 17.3134 28.9771 17.1944 28.8631 17.1531L28.8683 17.1479Z" fill="#BCAA8F"/>
</g>
<defs>
<clipPath id="clip0_201_2873">
<rect width="122" height="48" fill="white"/>
</clipPath>
</defs>
</svg>
